<svg width="12" height="11" viewBox="0 0 12 11" fill="none" xmlns="http://www.w3.org/2000/svg">
<path fill-rule="evenodd" clip-rule="evenodd" d="M10.7719 2.76854C11.2528 2.41122 11.6715 1.96803 12 1.46169C11.5559 1.66279 11.0831 1.79907 10.5871 1.85945C11.095 1.54811 11.4851 1.0534 11.6699 0.463962C11.1928 0.751481 10.6682 0.962549 10.1046 1.07722C9.65673 0.586393 9.0181 0.278931 8.30815 0.278931C6.94876 0.278931 5.8471 1.41072 5.8471 2.804C5.8471 3.00122 5.86817 3.19511 5.91247 3.37682C3.86258 3.27378 2.04881 2.26774 0.83584 0.742063C0.624584 1.11323 0.503017 1.54811 0.503017 2.01014C0.503017 2.88765 0.937956 3.65769 1.59766 4.11141C1.19298 4.097 0.814768 3.98565 0.481945 3.79619V3.82998C0.481945 5.05041 1.32967 6.06975 2.45889 6.30242C2.25142 6.35948 2.03206 6.39106 1.80891 6.39106C1.64899 6.39106 1.49716 6.37499 1.3475 6.34563C1.66087 7.34668 2.56803 8.07905 3.64376 8.09844C2.80306 8.77486 1.74138 9.17816 0.587303 9.17816C0.389554 9.17816 0.193967 9.16874 0 9.14381C1.09194 9.86123 2.38379 10.2789 3.77452 10.2789C8.30275 10.2789 10.7795 6.42984 10.7795 3.0965C10.7795 2.98792 10.7773 2.87879 10.7719 2.76854Z" fill="#333333"/>
</svg>
